<?xml version="1.0" encoding="UTF-8" ?>
<!DOCTYPE svg PUBLIC "-//W3C//DTD SVG 1.1//EN" "http://www.w3.org/Graphics/SVG/1.1/DTD/svg11.dtd">
<svg width="700pt" height="700pt" viewBox="100 100 800 800" version="1.1" xmlns="http://www.w3.org/2000/svg">
<path fill="#ca4984" d=" M 247.87 192.94 C 248.00 190.27 247.59 186.35 251.07 185.73 C 253.30 186.26 254.82 188.10 256.37 189.65 C 262.51 196.36 268.88 202.86 275.18 209.41 C 282.00 202.46 288.65 195.36 295.40 188.35 C 296.64 187.20 297.98 185.54 299.91 186.08 C 302.31 186.31 302.31 189.16 302.39 190.97 C 302.38 215.65 302.35 240.33 302.40 265.01 C 302.88 269.79 298.32 272.48 295.59 275.66 C 289.54 282.23 283.12 288.48 277.11 295.05 C 276.57 306.56 276.85 318.15 277.05 329.68 C 312.29 329.64 347.54 329.67 382.78 329.67 C 382.77 317.94 382.89 306.21 382.72 294.48 C 375.29 287.84 368.82 280.23 361.79 273.20 C 359.96 271.12 357.27 269.14 357.43 266.07 C 357.35 241.38 357.48 216.69 357.37 192.00 C 357.43 189.84 357.14 186.41 360.04 185.98 C 361.38 185.27 362.46 186.81 363.47 187.46 C 370.67 194.37 377.01 202.17 384.35 208.93 C 385.85 208.45 386.86 207.12 387.97 206.08 C 393.14 200.54 398.41 195.09 403.56 189.54 C 405.14 188.03 406.65 186.00 409.00 185.79 C 411.93 186.37 411.79 189.66 411.80 191.97 C 411.69 216.67 411.82 241.38 411.74 266.08 C 411.98 268.72 409.91 270.56 408.31 272.32 C 403.19 277.54 398.20 282.86 393.05 288.04 C 391.25 289.96 388.88 291.98 389.28 294.92 C 389.30 306.50 389.32 318.08 389.31 329.66 C 424.59 329.68 459.87 329.62 495.15 329.69 C 495.41 318.07 495.17 306.44 495.29 294.82 C 487.93 288.12 481.54 280.46 474.45 273.50 C 472.48 271.34 469.66 269.26 469.80 266.00 C 469.71 243.35 469.83 220.70 469.76 198.05 C 469.78 194.70 469.49 191.31 470.11 188.00 C 470.69 185.83 473.65 185.10 475.14 186.85 C 482.71 193.93 489.20 202.17 496.98 209.01 C 504.76 202.16 511.24 193.93 518.81 186.86 C 521.06 184.46 524.69 187.01 524.11 189.97 C 524.30 214.29 524.05 238.63 524.23 262.96 C 524.16 265.49 524.46 268.45 522.43 270.38 C 516.11 277.09 509.60 283.65 503.30 290.39 C 501.15 292.31 501.72 295.39 501.59 297.97 C 501.80 308.00 501.48 318.04 501.71 328.06 C 501.27 330.07 503.87 329.47 504.98 329.69 C 539.19 329.62 573.41 329.70 607.62 329.65 C 607.58 317.96 607.66 306.27 607.58 294.57 C 600.68 288.47 594.72 281.40 588.18 274.93 C 585.60 272.05 581.60 269.40 582.16 264.99 C 582.18 242.65 582.20 220.31 582.16 197.98 C 582.22 194.54 581.82 191.02 582.60 187.65 C 583.61 185.19 587.01 185.79 588.41 187.57 C 594.89 194.09 600.98 200.99 607.46 207.52 C 608.21 208.10 609.43 209.66 610.34 208.35 C 617.05 201.74 623.28 194.63 629.94 187.96 C 631.03 186.96 632.27 185.62 633.93 186.05 C 636.41 186.20 636.49 189.13 636.53 191.00 C 636.51 213.00 636.51 235.00 636.52 256.99 C 636.47 260.67 636.81 264.39 636.25 268.04 C 633.75 272.43 629.50 275.47 626.27 279.29 C 622.48 283.69 617.83 287.37 614.42 292.07 C 613.69 304.56 614.31 317.15 614.16 329.68 C 649.39 329.65 684.63 329.65 719.87 329.68 C 719.89 317.95 719.98 306.23 719.83 294.50 C 712.37 287.85 705.92 280.18 698.85 273.13 C 696.99 271.07 694.36 269.04 694.55 265.95 C 694.47 241.30 694.61 216.64 694.49 191.98 C 694.59 189.86 694.26 186.54 697.01 186.00 C 698.37 185.15 699.51 186.76 700.55 187.43 C 707.78 194.60 714.53 202.25 721.80 209.39 C 728.46 202.50 735.07 195.56 741.62 188.57 C 743.11 187.33 744.74 184.98 746.93 186.19 C 749.27 187.10 748.64 190.05 748.86 192.02 C 748.75 216.70 748.89 241.38 748.80 266.06 C 749.06 268.98 746.65 270.94 744.88 272.88 C 739.90 277.91 735.06 283.08 730.08 288.10 C 728.24 290.03 725.91 292.08 726.36 295.05 C 726.43 450.29 726.38 605.53 726.39 760.76 C 730.29 757.62 734.13 754.38 738.30 751.58 C 735.58 758.46 731.88 764.89 728.67 771.55 C 726.82 775.03 725.51 778.82 723.08 781.97 C 717.73 771.83 712.48 761.59 707.81 751.11 C 711.85 754.18 715.76 757.43 719.83 760.48 C 720.08 726.91 719.81 693.35 719.90 659.78 C 684.65 659.70 649.39 659.73 614.14 659.77 C 614.14 693.32 614.06 726.88 614.16 760.44 C 618.27 757.45 622.17 754.20 626.19 751.11 C 623.35 758.07 619.65 764.62 616.38 771.38 C 614.47 774.88 613.21 778.79 610.68 781.93 C 605.32 771.73 600.24 761.36 595.18 751.00 C 599.45 754.09 603.50 757.47 607.62 760.77 C 607.63 727.13 607.57 693.50 607.64 659.87 C 572.33 659.58 537.01 659.80 501.69 659.76 C 501.67 693.34 501.55 726.91 501.75 760.49 C 505.91 757.42 509.89 754.11 514.05 751.04 C 509.11 761.56 503.72 771.86 498.57 782.28 C 493.00 772.04 487.84 761.59 482.90 751.04 C 487.03 754.13 490.99 757.43 495.16 760.46 C 495.37 726.89 495.25 693.32 495.22 659.75 C 459.90 659.80 424.59 659.58 389.28 659.86 C 389.38 693.39 389.22 726.93 389.36 760.46 C 393.35 757.54 397.16 754.36 401.21 751.53 C 396.71 762.02 391.25 772.09 386.08 782.27 C 380.70 771.87 375.52 761.37 370.34 750.88 C 374.52 754.00 378.55 757.32 382.74 760.44 C 382.87 726.90 382.76 693.35 382.80 659.80 C 347.52 659.67 312.24 659.75 276.96 659.76 C 276.73 684.83 276.93 709.90 276.86 734.96 C 276.93 743.47 276.66 751.97 277.07 760.48 C 281.17 757.42 285.10 754.15 289.17 751.06 C 285.68 759.27 281.24 767.03 277.47 775.11 C 276.28 777.47 275.20 779.92 273.61 782.05 C 268.29 771.79 263.20 761.41 258.09 751.05 C 262.38 754.10 266.43 757.48 270.56 760.75 C 270.46 605.17 270.58 449.59 270.50 294.02 C 270.64 291.98 269.01 290.55 267.81 289.15 C 261.94 283.04 256.00 277.00 250.16 270.87 C 248.23 269.13 247.82 266.52 247.88 264.05 C 247.91 240.35 247.93 216.64 247.87 192.94 Z" />
<path fill="#ca4984" d=" M 172.16 290.89 C 173.69 279.82 184.73 271.19 195.85 272.48 C 207.01 273.28 216.46 283.75 215.79 294.98 C 215.81 306.43 205.40 316.50 193.99 316.32 C 189.43 316.67 185.48 314.09 181.17 313.18 C 179.68 314.21 178.40 315.51 177.08 316.74 C 179.02 319.35 181.57 322.48 180.12 325.95 C 178.02 330.30 174.26 333.53 171.34 337.31 C 168.18 340.82 165.66 345.00 161.83 347.83 C 158.43 350.05 154.60 347.77 151.53 346.10 C 151.33 346.78 150.91 348.14 150.71 348.82 C 153.08 350.05 156.01 350.91 157.38 353.43 C 159.15 356.35 157.69 359.76 156.88 362.75 C 154.89 368.67 153.32 374.72 151.35 380.65 C 150.51 383.52 148.10 386.04 145.02 386.32 C 141.90 386.29 138.92 385.24 135.94 384.44 C 135.82 386.29 135.70 388.15 135.58 390.01 C 139.26 390.33 143.85 389.35 146.53 392.57 C 149.48 395.98 148.24 400.90 148.49 405.02 C 148.09 411.24 149.34 417.67 147.74 423.75 C 145.65 428.55 139.74 428.10 135.41 428.23 C 135.65 430.51 135.87 432.78 136.08 435.06 C 140.36 433.95 145.97 431.45 149.49 435.49 C 152.35 439.58 152.92 444.76 154.57 449.39 C 155.80 454.24 158.31 458.93 158.14 464.03 C 157.32 468.69 152.30 470.00 148.44 471.18 C 149.68 473.98 150.94 476.77 152.21 479.56 C 155.26 477.95 159.23 476.06 162.36 478.62 C 166.36 482.03 169.19 486.55 172.71 490.42 C 175.37 493.84 178.97 496.79 180.37 501.02 C 181.50 506.40 176.15 509.48 172.66 512.40 C 174.69 514.96 176.76 517.50 178.90 519.98 C 182.84 516.86 187.38 511.08 193.00 514.00 C 197.93 517.70 201.12 523.19 205.30 527.66 C 208.20 531.44 213.32 535.23 211.55 540.66 C 209.87 544.37 206.09 546.46 203.14 549.07 C 204.01 550.97 204.87 552.90 205.68 554.84 C 209.63 553.89 213.80 551.46 217.91 552.88 C 221.74 554.27 222.56 558.67 223.66 562.09 C 225.26 568.13 227.52 573.99 228.97 580.07 C 229.93 583.19 228.28 586.77 225.37 588.18 C 223.71 588.98 221.96 589.56 220.24 590.19 C 220.39 592.65 220.58 595.11 220.76 597.57 C 224.18 597.93 228.34 597.32 230.92 600.11 C 233.51 602.71 233.01 606.70 233.17 610.07 C 233.00 616.04 233.36 622.02 233.01 627.99 C 233.00 630.81 231.47 633.64 228.86 634.84 C 226.41 635.80 223.70 635.52 221.17 636.11 C 220.51 638.94 220.43 641.87 220.24 644.77 C 222.98 645.85 226.39 646.32 228.04 649.08 C 230.03 651.71 229.01 655.10 228.18 657.97 C 226.51 663.30 224.83 668.63 223.29 674.00 C 222.38 676.82 221.54 680.18 218.68 681.66 C 215.30 683.65 211.55 681.36 208.03 681.13 C 205.56 684.37 204.44 688.37 202.74 692.03 C 205.74 694.67 209.44 696.83 211.42 700.42 C 212.83 703.79 211.07 707.25 208.77 709.70 C 204.41 714.73 200.26 719.93 195.93 724.98 C 194.03 727.27 191.02 728.99 187.98 728.08 C 184.60 726.73 182.01 724.05 179.21 721.82 C 176.53 724.52 173.54 726.95 171.21 729.98 C 173.11 733.85 175.81 737.52 176.13 741.97 C 177.31 750.21 173.17 758.74 166.23 763.23 C 158.50 768.37 147.43 767.76 140.39 761.67 C 134.35 756.84 131.29 748.67 132.68 741.06 C 134.11 731.59 142.52 723.76 152.04 722.89 C 156.90 722.22 161.65 723.89 166.05 725.77 C 168.71 723.15 171.36 720.52 174.03 717.91 C 171.53 715.26 168.29 711.99 169.75 707.99 C 171.68 703.78 175.31 700.69 178.10 697.08 C 181.41 693.39 184.08 689.05 188.04 686.00 C 191.13 683.89 194.65 686.15 197.83 686.68 C 199.33 684.23 200.34 681.53 201.52 678.93 C 197.47 677.65 192.13 676.06 191.72 671.01 C 192.34 664.68 195.19 658.82 196.70 652.68 C 198.04 648.97 198.40 644.26 201.98 641.92 C 205.65 639.46 209.98 641.89 213.74 642.86 C 214.00 640.49 214.28 638.14 214.59 635.80 C 210.90 635.52 206.46 636.37 203.60 633.43 C 201.05 630.99 201.51 627.15 201.40 623.96 C 201.59 617.63 201.21 611.30 201.55 604.99 C 201.56 601.83 203.90 598.83 207.00 598.15 C 209.49 597.66 212.04 597.73 214.57 597.64 C 214.31 595.79 214.06 593.94 213.82 592.10 C 210.40 592.96 206.83 594.57 203.28 593.61 C 199.15 592.19 198.36 587.42 197.18 583.80 C 195.56 577.47 192.96 571.40 191.77 564.97 C 191.15 560.51 195.40 557.99 198.92 556.57 C 198.83 555.90 198.66 554.56 198.58 553.89 C 195.12 555.62 190.54 558.00 187.15 554.83 C 182.74 550.58 179.30 545.44 175.17 540.93 C 173.00 538.17 169.98 535.62 169.46 531.96 C 169.02 528.58 171.78 526.17 173.76 523.86 C 171.78 521.53 169.82 519.21 167.87 516.88 C 164.66 519.21 160.33 522.34 156.45 519.46 C 151.60 515.32 148.17 509.82 143.85 505.16 C 141.13 501.78 136.80 498.15 138.38 493.29 C 140.04 489.35 144.08 487.19 147.17 484.49 C 145.57 480.71 144.10 476.87 142.26 473.19 C 137.99 474.31 132.14 476.47 129.03 472.00 C 125.90 466.11 124.97 459.34 122.65 453.11 C 121.70 449.45 119.46 445.28 121.71 441.68 C 123.35 438.75 126.92 438.13 129.78 437.00 C 129.49 434.10 129.20 431.21 128.94 428.32 C 125.46 427.86 121.09 428.47 118.68 425.31 C 116.01 421.81 117.01 417.05 116.81 412.95 C 117.18 406.84 116.01 400.55 117.60 394.58 C 119.40 389.93 124.89 390.05 129.04 389.85 C 129.30 387.53 129.62 385.21 129.64 382.87 C 126.94 381.10 123.08 380.67 121.54 377.50 C 119.80 374.56 121.31 371.16 122.09 368.18 C 124.16 362.08 125.70 355.81 127.85 349.74 C 128.73 347.07 131.14 344.98 133.96 344.67 C 137.59 344.96 141.06 346.15 144.56 347.08 C 145.22 345.34 145.94 343.60 146.42 341.80 C 144.46 338.37 140.01 336.91 138.49 333.10 C 137.46 330.37 138.39 327.38 140.26 325.26 C 144.61 319.97 149.07 314.77 153.44 309.49 C 155.57 306.66 159.30 304.36 162.87 306.04 C 166.23 307.86 168.97 310.61 171.94 312.99 C 173.50 311.41 175.06 309.84 176.63 308.27 C 173.16 303.23 170.99 297.04 172.16 290.89 Z" />
<path fill="#ca4984" d=" M 781.17 294.03 C 780.97 283.16 790.26 273.29 801.05 272.49 C 810.81 271.39 820.71 277.81 823.80 287.10 C 826.50 294.22 824.62 302.23 820.29 308.29 C 821.87 309.85 823.45 311.42 825.02 313.01 C 829.33 309.89 833.76 303.46 839.81 306.23 C 844.84 309.83 847.97 315.43 852.19 319.89 C 855.06 323.63 860.13 327.33 858.61 332.70 C 857.05 336.57 853.12 338.70 850.15 341.39 C 850.91 343.27 851.68 345.15 852.47 347.04 C 856.25 346.19 860.06 344.40 863.99 344.89 C 868.96 346.18 869.80 351.85 871.11 356.01 C 872.65 362.38 875.64 368.45 876.23 375.01 C 875.77 379.68 870.98 381.32 867.17 382.51 C 867.41 384.94 867.65 387.37 867.84 389.81 C 871.37 390.24 875.76 389.64 878.24 392.81 C 880.66 395.96 879.78 400.25 880.08 403.96 C 879.83 410.41 880.85 417.02 879.39 423.36 C 877.72 428.12 872.11 428.08 867.96 428.35 C 867.68 431.21 867.40 434.08 867.13 436.95 C 871.02 438.16 876.12 440.01 876.22 444.90 C 875.54 451.12 872.75 456.88 871.28 462.94 C 869.85 467.07 869.34 472.73 864.61 474.46 C 861.27 475.30 857.91 473.94 854.69 473.18 C 852.82 476.87 851.32 480.72 849.77 484.55 C 852.64 486.88 855.88 488.94 858.01 492.04 C 859.50 494.57 859.02 497.93 857.17 500.16 C 853.39 505.04 849.18 509.57 845.36 514.42 C 843.24 516.78 841.28 519.85 837.95 520.50 C 834.50 521.21 831.76 518.55 829.09 516.85 C 827.09 519.19 825.10 521.55 823.12 523.90 C 824.95 525.98 827.47 528.00 827.49 531.04 C 827.62 534.85 824.46 537.54 822.31 540.30 C 817.99 545.02 814.35 550.35 809.78 554.83 C 807.04 557.53 803.19 556.16 800.22 554.73 C 798.94 553.70 797.99 555.31 797.01 555.89 C 800.10 557.66 804.30 559.08 805.06 563.06 C 805.50 566.23 804.09 569.27 803.28 572.28 C 801.40 577.79 800.06 583.47 798.05 588.94 C 797.18 591.54 794.88 593.70 792.10 593.98 C 788.98 594.04 786.04 592.88 783.10 592.02 C 782.93 593.92 782.73 595.82 782.52 597.72 C 786.86 597.69 792.72 597.31 794.77 602.13 C 796.37 608.25 795.13 614.70 795.54 620.96 C 795.28 625.07 796.51 630.07 793.39 633.38 C 790.55 636.38 786.05 635.51 782.36 635.78 C 782.64 638.13 782.89 640.49 783.12 642.86 C 787.45 641.50 793.19 639.04 796.66 643.41 C 799.41 647.65 800.01 652.87 801.69 657.57 C 802.94 662.04 804.94 666.39 805.21 671.08 C 804.74 676.10 799.42 677.69 795.37 678.94 C 796.60 681.62 797.84 684.31 799.04 687.02 C 802.10 685.83 805.79 683.94 808.91 686.01 C 812.85 689.06 815.51 693.39 818.83 697.06 C 821.63 700.67 825.25 703.76 827.17 707.98 C 828.67 711.94 825.48 715.20 822.89 717.71 C 825.55 720.40 828.09 723.21 830.90 725.76 C 835.65 723.76 840.81 721.99 846.03 723.05 C 856.51 724.51 864.90 734.44 864.57 745.02 C 864.66 756.10 855.11 766.24 844.01 766.66 C 833.66 767.60 823.54 759.99 821.24 749.94 C 819.33 742.92 821.76 735.61 826.01 729.97 C 823.25 727.24 820.49 724.53 817.72 721.82 C 814.92 724.05 812.33 726.72 808.96 728.07 C 805.36 729.19 802.17 726.62 800.10 723.97 C 795.78 718.60 791.21 713.44 786.90 708.06 C 784.82 705.66 784.36 701.89 786.18 699.22 C 788.35 696.38 791.59 694.64 793.91 691.95 C 792.88 688.05 790.81 684.53 789.14 680.88 C 786.46 681.54 783.79 682.45 781.01 682.52 C 778.06 682.30 775.61 680.04 774.75 677.28 C 772.67 671.26 771.12 665.07 769.07 659.04 C 768.25 656.01 766.75 652.51 768.59 649.56 C 770.19 646.48 773.85 645.80 776.80 644.65 C 776.54 641.81 776.45 638.95 775.73 636.19 C 772.43 635.28 768.24 636.13 765.84 633.15 C 763.49 630.72 763.90 627.06 763.78 623.97 C 763.98 617.64 763.55 611.30 763.96 604.99 C 764.02 601.96 766.10 599.02 769.07 598.25 C 771.34 597.74 773.69 597.75 776.02 597.61 C 776.25 595.15 776.52 592.70 776.80 590.26 C 772.81 589.01 767.52 587.04 767.70 581.97 C 768.56 575.70 771.27 569.86 772.79 563.73 C 774.16 559.83 774.66 554.49 779.12 552.84 C 783.19 551.51 787.30 553.87 791.22 554.80 C 792.07 552.89 792.92 550.98 793.79 549.08 C 789.93 545.71 783.40 542.22 785.38 536.05 C 787.95 531.02 792.38 527.25 795.75 522.77 C 798.76 519.53 801.01 515.07 805.33 513.44 C 810.63 512.09 814.28 517.17 818.05 519.95 C 820.16 517.47 822.22 514.94 824.27 512.41 C 821.45 509.90 817.59 507.84 816.59 503.93 C 815.78 500.78 817.82 498.00 819.72 495.74 C 823.40 491.41 827.07 487.08 830.64 482.66 C 832.44 480.60 834.23 478.09 837.09 477.49 C 839.81 476.78 842.28 478.55 844.69 479.53 C 845.98 476.76 847.24 473.97 848.47 471.17 C 844.34 469.99 838.80 468.26 838.70 463.05 C 839.56 456.52 842.38 450.45 843.95 444.07 C 845.21 440.20 845.96 435.06 850.38 433.53 C 853.91 432.62 857.44 434.24 860.84 435.06 C 861.03 432.78 861.25 430.50 861.49 428.23 C 857.14 428.09 851.27 428.54 849.18 423.73 C 847.58 417.65 848.81 411.22 848.41 404.99 C 848.65 400.84 847.44 395.87 850.47 392.47 C 853.25 389.37 857.79 390.31 861.49 390.01 C 861.10 388.13 860.83 386.24 860.70 384.35 C 857.07 385.25 853.01 387.53 849.36 385.54 C 845.56 383.47 845.09 378.72 843.82 375.03 C 842.29 368.96 839.70 363.15 838.74 356.94 C 838.38 352.59 842.62 350.29 846.05 348.89 C 845.90 348.20 845.60 346.80 845.44 346.11 C 842.38 347.75 838.59 350.00 835.18 347.90 C 831.34 345.08 828.82 340.91 825.68 337.40 C 822.74 333.59 818.96 330.33 816.84 325.95 C 815.31 322.52 818.15 319.63 819.57 316.76 C 818.33 315.29 816.87 314.05 815.48 312.75 C 811.04 315.01 806.14 316.88 801.06 316.22 C 790.03 315.44 780.68 305.12 781.17 294.03 Z" />
<path fill="#303236" d=" M 183.29 285.30 C 188.15 279.15 198.24 278.71 203.60 284.43 C 209.71 289.90 208.99 300.63 202.36 305.39 C 198.20 308.96 192.36 308.67 187.43 307.10 C 190.71 303.05 194.99 299.91 198.16 295.78 C 200.16 293.20 196.24 289.76 193.80 291.76 C 189.59 295.01 186.27 299.27 182.11 302.60 C 179.33 297.16 178.82 290.02 183.29 285.30 Z" />
<path fill="#303236" d=" M 792.92 284.85 C 798.18 278.73 808.71 279.00 813.68 285.35 C 818.10 290.04 817.47 297.17 814.86 302.60 C 810.89 299.43 807.62 295.50 803.75 292.23 C 802.21 290.57 798.98 290.98 798.41 293.33 C 797.71 295.34 799.56 296.90 800.75 298.24 C 803.76 301.10 806.76 303.98 809.53 307.08 C 804.80 308.56 799.29 309.01 795.13 305.81 C 788.25 301.38 787.06 290.60 792.92 284.85 Z" />
<path fill="#303236" d=" M 144.14 330.88 C 149.27 324.46 154.36 317.93 160.07 312.01 C 162.71 313.34 164.87 315.42 167.09 317.34 C 165.47 319.11 163.70 320.82 162.56 322.97 C 162.01 325.21 164.39 327.31 166.55 326.57 C 168.86 325.31 170.60 323.27 172.47 321.47 C 173.14 322.51 174.42 323.97 173.16 325.10 C 168.39 331.10 163.38 336.91 158.30 342.65 C 157.13 341.72 155.96 340.79 154.80 339.87 C 156.43 335.91 158.65 332.15 159.66 327.96 C 159.84 325.34 156.48 324.31 154.60 325.62 C 152.40 328.53 151.22 332.04 149.69 335.32 C 147.87 333.80 146.02 332.32 144.14 330.88 Z" />
<path fill="#303236" d=" M 830.21 317.34 C 832.03 315.13 834.28 313.19 836.93 312.05 C 840.24 315.11 842.78 318.87 845.77 322.23 C 848.06 325.04 850.85 327.55 852.41 330.89 C 850.81 332.52 849.01 333.92 847.24 335.35 C 845.82 332.28 844.62 329.08 842.78 326.23 C 841.38 323.96 836.92 325.15 837.29 327.97 C 837.93 332.17 840.92 335.56 841.81 339.69 C 840.92 340.83 839.84 341.82 838.85 342.86 C 835.70 339.44 832.70 335.90 829.76 332.31 C 827.33 329.35 824.40 326.69 822.83 323.14 C 823.20 322.85 823.94 322.27 824.31 321.99 C 826.40 323.19 828.04 325.03 830.07 326.35 C 832.19 327.65 834.92 325.27 834.39 322.95 C 833.15 320.96 831.33 319.40 830.21 317.34 Z" />
<path fill="#303236" d=" M 277.00 336.19 C 312.27 336.19 347.53 336.17 382.80 336.20 C 382.78 370.00 382.85 403.79 382.76 437.59 C 347.54 437.57 312.31 437.53 277.09 437.61 C 276.60 426.07 276.97 414.51 276.86 402.96 C 276.95 380.70 276.68 358.44 277.00 336.19 Z" />
<path fill="#303236" d=" M 389.29 336.21 C 424.59 336.14 459.89 336.22 495.19 336.18 C 495.27 369.99 495.41 403.80 495.12 437.61 C 459.85 437.53 424.59 437.57 389.33 437.59 C 389.27 403.80 389.34 370.01 389.29 336.21 Z" />
<path fill="#303236" d=" M 501.72 336.17 C 537.02 336.23 572.33 336.14 607.63 336.22 C 607.59 370.00 607.63 403.79 607.61 437.58 C 572.33 437.58 537.06 437.53 501.78 437.61 C 501.52 403.80 501.65 369.98 501.72 336.17 Z" />
<path fill="#303236" d=" M 614.13 336.19 C 649.38 336.18 684.64 336.18 719.89 336.19 C 719.86 370.00 720.00 403.81 719.87 437.62 C 684.63 437.53 649.40 437.56 614.16 437.60 C 614.06 403.80 614.15 369.99 614.13 336.19 Z" />
<path fill="#303236" d=" M 134.23 350.97 C 136.62 351.66 139.01 352.33 141.43 352.94 C 139.96 356.26 138.19 359.49 137.30 363.03 C 136.69 365.69 140.75 367.61 142.43 365.46 C 144.77 362.35 145.93 358.56 147.57 355.07 C 149.04 355.46 150.50 355.86 151.97 356.27 C 149.80 364.27 147.25 372.16 144.74 380.07 C 142.24 379.36 139.73 378.67 137.22 378.02 C 137.02 375.07 138.20 370.11 133.94 369.68 C 130.89 370.08 131.00 373.53 130.21 375.80 C 129.13 375.45 128.06 375.10 126.99 374.76 C 129.13 366.75 131.70 358.86 134.23 350.97 Z" />
<path fill="#303236" d=" M 855.52 352.94 C 857.94 352.33 860.35 351.66 862.76 350.97 C 865.24 358.83 867.72 366.69 869.95 374.63 C 869.18 374.94 867.62 375.56 866.84 375.87 C 865.96 373.57 865.98 370.18 862.97 369.62 C 858.75 370.21 859.89 375.05 859.76 378.05 C 857.20 378.69 854.66 379.37 852.12 380.06 C 849.73 372.05 847.04 364.13 844.96 356.03 C 846.29 355.76 847.64 355.45 849.01 355.31 C 851.35 358.41 852.08 362.45 854.48 365.51 C 856.21 367.59 860.08 365.69 859.65 363.07 C 858.67 359.55 857.02 356.26 855.52 352.94 Z" />
<path fill="#303236" d=" M 123.33 396.86 C 124.90 396.70 126.48 396.56 128.07 396.43 C 128.20 399.17 126.83 404.29 130.99 404.53 C 134.98 404.34 133.92 399.36 135.14 396.72 C 137.44 396.48 139.75 396.58 142.06 396.57 C 142.11 404.92 142.36 413.27 141.86 421.61 C 139.53 421.58 137.20 421.55 134.87 421.53 C 134.16 419.03 134.50 414.89 130.99 414.68 C 127.41 414.98 128.11 419.19 127.60 421.71 C 126.21 421.62 124.82 421.53 123.44 421.45 C 123.23 413.25 123.35 405.06 123.33 396.86 Z" />
<path fill="#303236" d=" M 854.85 396.61 C 857.23 396.65 859.62 396.62 862.01 396.53 C 862.67 399.22 861.89 404.45 865.93 404.47 C 870.11 404.38 868.54 399.11 868.88 396.43 C 870.44 396.56 872.02 396.71 873.60 396.88 C 873.55 405.11 873.73 413.35 873.45 421.59 C 871.98 421.56 870.53 421.54 869.08 421.53 C 868.74 419.06 869.52 415.08 866.04 414.68 C 862.44 414.71 863.08 419.16 861.70 421.44 C 859.53 421.65 856.98 422.17 855.04 421.03 C 854.42 412.91 854.94 404.75 854.85 396.61 Z" />
<path fill="#303236" d=" M 137.28 441.54 C 139.69 440.79 142.11 440.05 144.54 439.35 C 147.37 447.25 149.82 455.29 151.94 463.41 C 149.81 463.92 147.69 464.46 145.58 465.03 C 144.49 462.91 143.70 460.56 142.02 458.82 C 140.40 457.94 138.00 458.50 137.41 460.37 C 137.20 462.80 138.32 465.08 138.98 467.37 C 137.46 467.80 135.95 468.23 134.44 468.67 C 131.54 460.75 129.11 452.67 127.00 444.52 C 128.08 444.36 129.17 444.21 130.27 444.07 C 130.89 446.44 131.62 450.30 135.01 449.38 C 138.16 448.13 136.87 444.15 137.28 441.54 Z" />
<path fill="#303236" d=" M 845.04 463.47 C 847.09 455.31 849.57 447.26 852.42 439.35 C 854.85 440.05 857.28 440.80 859.70 441.56 C 859.77 443.65 859.64 445.78 860.13 447.83 C 860.95 449.78 864.05 450.02 865.24 448.29 C 865.85 446.92 866.20 445.46 866.66 444.04 C 867.74 444.19 868.83 444.35 869.93 444.52 C 867.87 452.68 865.34 460.72 862.57 468.66 C 861.03 468.23 859.51 467.81 857.99 467.39 C 858.52 464.64 861.26 460.42 857.88 458.68 C 853.84 457.22 852.91 462.45 851.35 464.99 C 849.25 464.47 847.14 463.95 845.04 463.47 Z" />
<path fill="#303236" d=" M 276.97 444.12 C 312.25 444.10 347.53 444.08 382.81 444.13 C 382.80 477.87 382.77 511.62 382.83 545.36 C 347.51 545.52 312.19 545.44 276.88 545.40 C 276.91 511.64 276.73 477.88 276.97 444.12 Z" />
<path fill="#303236" d=" M 389.28 444.16 C 424.60 444.06 459.92 444.09 495.24 444.13 C 495.28 477.88 495.27 511.64 495.25 545.40 C 459.97 545.51 424.69 545.36 389.41 545.48 C 389.16 511.71 389.42 477.93 389.28 444.16 Z" />
<path fill="#303236" d=" M 501.71 444.07 C 537.02 444.19 572.33 444.01 607.64 444.16 C 607.56 473.43 607.64 502.70 607.60 531.97 C 607.47 536.40 608.10 540.90 607.22 545.29 C 572.05 545.63 536.85 545.37 501.67 545.41 C 501.66 511.63 501.59 477.85 501.71 444.07 Z" />
<path fill="#303236" d=" M 614.13 444.10 C 649.39 444.11 684.64 444.09 719.89 444.11 C 719.92 477.87 719.87 511.63 719.92 545.39 C 684.65 545.46 649.37 545.48 614.10 545.38 C 614.14 511.62 614.10 477.86 614.13 444.10 Z" />
<path fill="#303236" d=" M 154.96 485.54 C 156.50 485.09 158.67 483.14 159.87 485.14 C 164.79 490.90 169.79 496.61 174.36 502.67 C 172.60 504.12 170.84 505.57 169.06 506.99 C 167.24 507.00 164.72 505.48 163.41 507.30 C 162.25 509.60 163.50 513.45 160.13 514.10 C 156.23 510.58 153.32 506.14 149.78 502.28 C 148.06 499.96 145.33 497.98 144.72 495.11 C 146.30 493.33 148.22 491.89 150.05 490.40 C 151.49 493.43 152.67 496.66 154.80 499.30 C 156.96 500.72 160.45 498.77 159.51 496.05 C 158.45 492.36 156.53 489.01 154.96 485.54 Z" />
<path fill="#303236" d=" M 838.22 484.09 C 839.49 484.44 840.69 485.00 841.93 485.53 C 840.34 489.28 838.00 492.81 837.28 496.86 C 837.17 499.29 840.28 500.49 842.16 499.26 C 844.23 496.59 845.43 493.37 846.88 490.34 C 848.71 491.87 850.64 493.32 852.22 495.13 C 851.81 497.54 849.57 499.21 848.16 501.12 C 844.22 505.29 841.11 510.22 836.81 514.04 C 833.49 513.59 834.59 509.64 833.59 507.40 C 832.32 505.44 829.62 507.02 827.77 506.91 C 826.16 505.63 824.46 504.42 823.16 502.82 C 823.30 500.68 825.35 499.19 826.54 497.51 C 830.60 493.18 833.91 488.17 838.22 484.09 Z" />
<path fill="#303236" d=" M 183.13 524.76 C 185.37 522.94 187.60 521.13 189.85 519.33 C 195.22 525.58 200.50 531.92 205.81 538.23 C 204.02 539.85 202.24 541.48 200.50 543.17 C 198.87 539.92 197.54 536.48 195.45 533.49 C 193.70 531.39 189.83 533.30 190.30 535.98 C 191.56 540.11 193.64 543.93 195.31 547.91 C 194.01 548.56 192.74 549.30 191.36 549.79 C 188.15 546.91 185.73 543.32 182.89 540.12 C 180.66 537.36 178.02 534.90 176.24 531.81 C 176.54 530.67 177.18 529.67 177.71 528.65 C 180.14 530.74 182.21 535.51 185.98 534.24 C 190.10 531.34 185.02 527.35 183.13 524.76 Z" />
<path fill="#303236" d=" M 791.13 538.23 C 796.46 531.92 801.70 525.53 807.13 519.31 C 809.35 521.12 811.56 522.94 813.79 524.76 C 812.29 526.60 810.57 528.32 809.49 530.46 C 808.51 532.67 810.84 535.02 813.09 534.58 C 815.37 533.09 816.99 530.84 819.09 529.13 C 820.49 529.87 821.41 531.73 820.01 532.98 C 815.33 538.78 810.37 544.37 805.61 550.11 C 804.31 549.33 803.01 548.54 801.73 547.76 C 803.34 543.80 805.39 540.00 806.64 535.91 C 806.98 533.28 803.19 531.40 801.46 533.50 C 799.33 536.46 798.04 539.92 796.44 543.17 C 794.69 541.48 792.92 539.85 791.13 538.23 Z" />
<path fill="#303236" d=" M 276.92 551.89 C 312.21 551.84 347.51 551.74 382.80 551.94 C 382.82 585.70 382.77 619.46 382.82 653.22 C 347.51 653.37 312.19 653.30 276.87 653.26 C 276.89 619.47 276.79 585.68 276.92 551.89 Z" />
<path fill="#303236" d=" M 389.29 552.01 C 424.60 551.64 459.92 551.91 495.23 551.87 C 495.29 585.67 495.27 619.47 495.25 653.26 C 459.92 653.27 424.60 653.41 389.28 653.20 C 389.34 619.47 389.31 585.74 389.29 552.01 Z" />
<path fill="#303236" d=" M 501.68 551.87 C 529.46 551.80 557.24 551.86 585.03 551.84 C 592.57 551.89 600.11 551.66 607.65 552.06 C 607.56 581.72 607.64 611.39 607.61 641.05 C 607.52 645.07 608.04 649.16 607.25 653.14 C 572.07 653.49 536.86 653.22 501.67 653.27 C 501.65 619.47 501.63 585.67 501.68 551.87 Z" />
<path fill="#303236" d=" M 614.14 551.90 C 649.38 551.78 684.63 551.83 719.87 551.88 C 719.96 585.67 719.86 619.45 719.92 653.24 C 684.65 653.34 649.38 653.32 614.11 653.25 C 614.15 619.47 614.09 585.69 614.14 551.90 Z" />
<path fill="#303236" d=" M 208.45 560.70 C 210.84 559.99 213.23 559.11 215.76 559.09 C 218.60 566.69 220.69 574.57 222.94 582.37 C 222.18 582.65 220.66 583.23 219.90 583.51 C 218.92 580.99 218.76 576.67 214.95 577.55 C 211.66 578.88 213.10 583.00 212.78 585.73 C 210.21 586.34 207.66 587.03 205.12 587.72 C 202.73 579.75 200.14 571.84 197.92 563.83 C 199.30 563.52 200.68 563.20 202.10 563.07 C 204.31 566.04 205.09 569.79 207.21 572.82 C 208.65 574.97 212.97 573.85 212.71 571.05 C 211.90 567.38 210.00 564.08 208.45 560.70 Z" />
<path fill="#303236" d=" M 781.18 559.11 C 783.60 559.14 785.93 559.86 788.29 560.40 C 786.95 563.95 785.10 567.32 784.23 571.02 C 783.90 573.70 787.53 574.73 789.29 573.28 C 791.88 570.23 792.38 565.93 795.03 562.92 C 796.40 563.24 799.57 563.42 798.52 565.58 C 796.41 573.06 794.14 580.52 791.55 587.85 C 789.10 587.14 786.68 586.42 784.26 585.68 C 784.16 583.51 784.27 581.31 783.80 579.19 C 783.02 577.26 780.72 577.32 779.07 577.91 C 778.17 579.67 777.65 581.58 777.05 583.46 C 776.29 583.22 774.77 582.73 774.01 582.49 C 776.16 574.63 778.35 566.74 781.18 559.11 Z" />
<path fill="#303236" d=" M 208.05 604.30 C 210.32 604.25 212.58 604.22 214.85 604.21 C 215.65 607.09 215.09 611.85 219.04 612.37 C 222.97 611.60 221.61 606.97 221.91 604.12 C 223.46 604.23 225.01 604.35 226.56 604.47 C 226.61 612.62 226.59 620.76 226.59 628.91 C 225.12 629.05 223.65 629.19 222.19 629.34 C 221.98 627.40 221.94 625.44 221.38 623.57 C 220.16 622.25 217.77 621.95 216.59 623.49 C 215.84 625.27 215.56 627.22 214.83 629.03 C 212.53 629.30 210.21 629.20 207.90 629.23 C 207.83 620.92 207.61 612.60 208.05 604.30 Z" />
<path fill="#303236" d=" M 770.39 604.43 C 771.89 604.33 773.40 604.23 774.93 604.15 C 775.00 606.30 774.66 608.55 775.35 610.64 C 776.49 612.71 779.50 612.72 780.68 610.67 C 781.38 608.63 781.51 606.46 781.83 604.35 C 784.17 604.32 786.52 604.28 788.88 604.21 C 789.35 612.55 789.17 620.92 789.03 629.27 C 786.61 629.13 784.19 629.08 781.78 629.05 C 781.11 626.72 781.48 622.38 778.03 622.51 C 774.34 622.36 775.05 626.89 774.62 629.32 C 773.19 629.18 771.76 629.06 770.35 628.94 C 770.31 620.77 770.27 612.60 770.39 604.43 Z" />
<path fill="#303236" d=" M 205.26 647.08 C 207.74 647.78 210.22 648.48 212.70 649.16 C 212.89 652.08 211.87 656.81 215.98 657.32 C 218.88 656.82 218.97 653.58 219.87 651.39 C 220.64 651.66 222.19 652.22 222.96 652.50 C 220.70 660.29 218.61 668.18 215.73 675.77 C 214.09 675.73 212.47 675.44 210.85 675.22 C 211.52 672.97 212.59 670.78 212.61 668.40 C 212.26 666.23 209.38 665.54 207.72 666.68 C 206.17 668.52 205.26 670.77 204.14 672.88 C 202.09 672.19 200.04 671.52 197.99 670.84 C 200.22 662.86 202.70 654.95 205.26 647.08 Z" />
<path fill="#303236" d=" M 784.28 649.13 C 786.76 648.47 789.23 647.77 791.71 647.09 C 794.21 654.98 796.73 662.88 798.95 670.86 C 796.88 671.54 794.80 672.21 792.74 672.89 C 791.64 670.79 790.72 668.55 789.21 666.71 C 787.59 665.58 784.81 666.15 784.34 668.25 C 784.20 670.61 785.39 672.80 786.04 675.03 C 784.38 675.39 782.72 675.75 781.08 676.11 C 778.73 668.22 776.06 660.42 773.98 652.45 C 774.76 652.22 776.31 651.75 777.09 651.51 C 777.98 653.67 778.10 656.91 781.01 657.30 C 785.04 656.71 784.04 652.04 784.28 649.13 Z" />
<path fill="#303236" d=" M 178.90 705.94 C 183.28 701.05 187.25 695.80 191.79 691.05 C 192.78 691.97 193.76 692.89 194.74 693.82 C 193.16 697.16 191.30 700.41 190.35 704.00 C 189.75 706.52 192.86 708.18 194.95 707.17 C 197.23 704.51 198.39 701.13 199.89 698.02 C 201.84 699.70 203.82 701.37 205.81 703.02 C 200.73 709.18 195.82 715.55 190.33 721.35 C 187.98 722.02 185.83 718.92 184.40 717.24 C 185.33 715.41 187.35 714.06 187.58 711.97 C 187.93 709.42 184.38 708.19 182.69 709.80 C 181.36 710.72 180.16 711.81 178.81 712.72 C 177.80 712.23 176.89 711.55 176.11 710.76 C 176.21 708.79 177.78 707.40 178.90 705.94 Z" />
<path fill="#303236" d=" M 802.18 693.81 C 803.17 692.88 804.17 691.96 805.17 691.05 C 810.80 697.48 816.66 703.77 821.49 710.84 C 820.32 711.42 819.21 712.08 818.01 712.56 C 815.79 711.47 814.01 708.38 811.25 709.28 C 809.48 709.56 809.10 711.52 809.38 713.03 C 810.40 714.58 811.70 715.92 812.92 717.34 C 811.07 718.97 809.28 720.77 806.99 721.78 C 801.35 715.81 796.30 709.29 791.09 702.96 C 793.13 701.36 795.14 699.72 797.13 698.06 C 798.59 701.16 799.60 704.63 802.01 707.18 C 804.07 708.18 807.11 706.49 806.56 704.05 C 805.66 700.42 803.71 697.18 802.18 693.81 Z" />
<path fill="#303236" d=" M 140.36 745.02 C 139.98 737.61 146.68 730.73 154.08 730.81 C 155.99 730.89 157.86 731.32 159.73 731.68 C 157.15 734.50 154.12 736.95 151.90 740.09 C 150.17 742.35 153.64 745.77 155.92 744.14 C 159.29 742.18 161.34 738.63 164.58 736.52 C 166.18 735.51 166.40 738.19 167.11 739.09 C 171.12 747.21 164.99 757.78 156.08 758.62 C 148.17 759.88 140.32 752.96 140.36 745.02 Z" />
<path fill="#303236" d=" M 839.04 731.19 C 846.89 728.96 855.65 734.91 856.47 743.01 C 857.70 750.84 850.95 758.68 843.05 758.71 C 836.57 759.09 830.42 754.16 828.98 747.91 C 827.96 743.87 829.08 739.52 831.45 736.16 C 835.36 737.89 837.35 742.14 841.04 744.24 C 843.27 745.34 845.63 743.26 845.54 740.97 C 843.80 737.17 839.19 735.44 837.96 731.41 L 839.04 731.19 Z" />
</svg>
