<?xml version="1.0" standalone="no"?>
<!DOCTYPE svg PUBLIC "-//W3C//DTD SVG 20010904//EN"
 "http://www.w3.org/TR/2001/REC-SVG-20010904/DTD/svg10.dtd">
<svg version="1.0" xmlns="http://www.w3.org/2000/svg"
 width="1250.000000pt" height="1250.000000pt" viewBox="0 0 1250.000000 1250.000000"
 preserveAspectRatio="xMidYMid meet">
<metadata>
Created by potrace 1.14, written by Peter Selinger 2001-2017
</metadata>
<g transform="translate(0.000000,1250.000000) scale(0.100000,-0.100000)"
fill="#000000" stroke="none">
<path d="M3120 10160 c-20 -20 -20 -31 -20 -511 0 -351 3 -497 12 -512 6 -12
69 -82 140 -155 l128 -134 0 -2924 c0 -1608 -2 -2924 -4 -2924 -2 0 -34 25
-72 55 -37 30 -70 53 -72 51 -8 -9 189 -386 199 -380 11 7 189 361 189 377 0
5 -28 -13 -62 -40 -35 -28 -69 -53 -75 -57 -10 -6 -13 121 -13 618 l0 626 553
0 c305 0 602 -3 660 -7 l107 -6 0 -619 c0 -340 -3 -618 -6 -618 -3 0 -34 22
-68 48 -33 27 -67 52 -74 56 -7 4 31 -80 85 -188 54 -108 101 -196 104 -196 9
0 193 369 187 375 -3 3 -35 -17 -71 -45 -36 -27 -69 -50 -72 -50 -3 0 -5 278
-5 618 l0 619 152 6 c83 4 380 7 660 7 l508 0 0 -626 c0 -497 -3 -624 -12
-618 -7 5 -41 30 -75 57 -35 27 -63 45 -62 40 0 -4 44 -95 97 -201 l97 -192
98 194 c53 106 97 197 97 201 0 4 -28 -15 -62 -42 -35 -28 -69 -53 -75 -57
-10 -6 -13 121 -13 618 l0 625 483 1 c265 0 562 -3 660 -6 l177 -7 0 -624 0
-623 -76 60 c-41 33 -77 60 -80 60 -2 0 40 -88 93 -195 54 -107 100 -195 103
-195 6 0 12 11 120 228 45 90 75 160 68 156 -7 -4 -41 -30 -74 -56 -34 -26
-64 -48 -68 -48 -3 0 -6 279 -6 619 l0 619 63 7 c75 8 1243 2 1251 -6 3 -3 5
-284 4 -623 l-3 -617 -72 56 c-40 31 -73 54 -73 50 0 -10 180 -369 190 -379 9
-9 193 349 188 365 -2 5 -32 -14 -68 -42 l-65 -50 -3 2916 c-1 1604 2 2923 6
2931 4 8 62 71 127 141 66 69 125 135 132 147 16 28 18 987 3 1017 -24 43 -53
24 -195 -126 l-137 -145 -140 145 c-150 155 -178 172 -198 119 -6 -15 -10
-217 -10 -502 0 -436 2 -480 18 -509 9 -18 81 -98 160 -179 l142 -146 0 -214
0 -214 -654 0 -653 0 -6 83 c-9 106 -9 247 0 327 l6 64 132 137 c108 111 133
143 136 170 2 19 2 252 -1 519 l-5 485 -26 3 c-22 3 -49 -20 -168 -140 l-142
-143 -137 143 c-136 141 -161 159 -190 130 -9 -9 -12 -137 -12 -516 l0 -503
129 -137 c71 -75 143 -150 160 -166 l31 -30 0 -213 0 -213 -660 0 -660 0 0
230 0 231 140 149 140 150 0 503 c0 378 -3 506 -12 515 -29 29 -54 12 -190
-130 l-137 -143 -144 143 c-115 115 -149 143 -167 140 -17 -2 -26 -12 -32 -36
-5 -18 -7 -247 -6 -510 3 -412 5 -480 19 -499 8 -12 79 -88 157 -168 l142
-147 0 -214 0 -214 -660 0 -660 0 0 214 c0 123 4 226 10 242 6 14 69 86 140
160 l130 133 1 103 c4 346 3 887 -2 908 -4 18 -13 26 -31 28 -26 3 -36 -6
-270 -250 -14 -15 -31 -28 -36 -28 -5 0 -69 63 -142 140 -132 140 -158 158
-188 128 -9 -9 -12 -137 -12 -516 l0 -503 139 -147 c76 -81 148 -156 160 -166
20 -18 21 -27 21 -233 l0 -213 -660 0 -660 0 0 211 0 212 138 143 c75 80 147
158 160 176 l22 31 0 489 c0 318 -4 496 -10 509 -24 43 -53 24 -197 -126
l-138 -145 -133 140 c-74 77 -142 145 -153 150 -14 8 -23 6 -39 -10z m1670
-2500 l0 -640 -659 0 c-592 0 -659 2 -665 16 -8 21 -8 1249 1 1257 3 4 303 7
665 7 l658 0 0 -640z m1410 0 l0 -640 -665 0 -665 0 0 640 0 640 665 0 665 0
0 -640z m1400 0 l0 -640 -665 0 -665 0 0 640 0 640 665 0 665 0 0 -640z m1410
0 l0 -640 -665 0 -665 0 0 640 0 640 665 0 665 0 0 -640z m-4220 -1344 c0
-569 -2 -634 -16 -640 -9 -3 -308 -6 -665 -6 l-649 0 0 640 0 640 665 0 665 0
0 -634z m1410 -6 l0 -640 -665 0 -665 0 0 640 0 640 665 0 665 0 0 -640z
m1400 6 l0 -633 -92 -7 c-50 -3 -349 -6 -665 -6 l-573 0 0 640 0 640 665 0
665 0 0 -634z m1410 -6 l0 -640 -665 0 -665 0 0 640 0 640 665 0 665 0 0 -640z
m-4220 -1345 l0 -635 -665 0 -665 0 0 635 0 635 665 0 665 0 0 -635z m1410 0
l0 -635 -665 0 -665 0 0 635 0 635 665 0 665 0 0 -635z m1400 0 l0 -635 -665
0 -665 0 0 635 1 635 664 0 665 0 0 -635z m1410 0 l0 -635 -665 0 -665 0 0
635 0 635 665 0 665 0 0 -635z"/>
<path d="M2315 9066 c-144 -67 -203 -235 -132 -378 l24 -47 -29 -28 -28 -27
-27 26 c-39 37 -94 68 -120 68 -31 0 -70 -36 -174 -161 -120 -144 -124 -164
-49 -243 47 -50 51 -58 42 -83 -10 -30 -10 -30 -94 -13 -99 21 -116 -2 -184
-238 -44 -154 -42 -168 34 -210 40 -22 42 -26 42 -68 l0 -44 -40 0 c-60 0 -97
-23 -109 -68 -6 -20 -11 -99 -11 -175 0 -189 15 -222 107 -235 l48 -7 3 -52
c3 -51 3 -51 -32 -63 -41 -13 -76 -53 -76 -86 0 -13 22 -94 49 -181 60 -192
66 -198 162 -189 l67 6 26 -66 27 -66 -23 -16 c-50 -34 -88 -83 -88 -113 0
-42 11 -59 122 -191 117 -140 147 -154 223 -108 l30 19 33 -39 33 -39 -27 -40
c-38 -58 -29 -88 57 -191 129 -155 157 -180 195 -180 19 0 48 7 64 15 46 24
39 -6 -7 -36 -68 -44 -68 -58 4 -288 45 -144 63 -166 136 -158 29 3 60 8 70
12 14 6 17 2 17 -23 0 -28 -3 -30 -50 -36 -31 -4 -60 -16 -77 -30 l-28 -24 0
-187 0 -187 28 -24 c22 -18 40 -24 78 -24 l49 0 0 -41 0 -41 -37 8 c-66 14
-102 9 -128 -17 -24 -25 -115 -297 -115 -345 0 -41 19 -64 70 -88 l48 -22 -19
-43 -19 -42 -45 6 c-24 4 -56 5 -69 1 -21 -5 -174 -177 -228 -256 -25 -35 -22
-69 8 -114 l26 -38 -45 -45 -45 -46 -48 17 c-133 45 -272 -4 -342 -122 -24
-41 -27 -57 -27 -132 0 -97 17 -142 75 -200 50 -50 104 -73 182 -78 210 -13
350 202 258 397 l-31 64 47 48 47 48 45 -35 c53 -40 85 -50 120 -38 35 12 228
240 243 286 10 32 9 41 -7 66 -10 16 -38 45 -60 64 l-41 34 29 64 c15 35 30
65 32 67 2 2 24 -1 50 -8 56 -14 100 0 120 40 23 43 96 291 96 323 0 45 -17
68 -67 90 l-45 20 7 46 c4 26 8 48 9 49 2 2 25 7 52 12 33 6 56 18 71 36 22
25 23 34 23 200 0 171 0 174 -25 203 -19 23 -37 32 -74 37 -39 5 -50 11 -55
28 -12 45 -7 65 18 71 14 3 38 18 55 32 42 35 40 61 -14 241 -34 114 -50 153
-70 171 -31 26 -74 28 -134 7 l-42 -15 -15 36 -15 35 50 45 c53 48 66 78 51
120 -12 31 -190 246 -222 269 -44 30 -95 17 -159 -42 l-27 -24 -36 44 -36 44
45 45 c50 51 59 93 28 138 -56 81 -208 251 -230 256 -14 4 -43 1 -65 -5 -22
-7 -41 -11 -42 -9 -9 16 -36 80 -36 86 0 5 16 14 36 21 83 30 92 77 45 225
-16 50 -34 110 -40 133 -17 64 -55 103 -99 103 -21 0 -51 -4 -69 -9 -29 -8
-31 -7 -37 21 -9 47 -8 48 29 48 45 0 101 23 113 47 12 23 16 84 14 246 -2
128 -2 129 -31 158 -25 24 -37 29 -80 29 -42 0 -51 3 -51 18 0 39 14 45 68 33
64 -16 101 1 125 56 27 61 89 275 90 310 1 34 -31 78 -65 89 -10 3 -18 12 -18
21 0 8 6 12 13 9 63 -26 87 -29 111 -13 22 15 156 165 214 241 28 36 29 89 2
126 l-20 28 25 20 c26 20 26 20 82 1 190 -65 375 59 376 254 1 201 -207 338
-388 253z m219 -110 c45 -34 67 -75 68 -129 2 -117 -76 -194 -189 -185 -29 3
-56 8 -60 12 -4 3 24 37 61 75 52 52 67 74 64 92 -6 47 -41 35 -122 -41 -81
-78 -84 -78 -101 -2 -16 77 28 166 100 199 49 22 136 12 179 -21z m-476 -393
c39 -29 40 -42 7 -73 -15 -14 -25 -33 -23 -45 5 -32 43 -30 86 4 35 30 37 31
46 12 7 -17 -8 -40 -89 -136 -93 -110 -98 -115 -119 -101 -26 17 -25 35 9 115
24 56 25 65 12 78 -24 25 -51 6 -82 -56 l-30 -60 -34 28 c-41 34 -45 26 79
174 49 58 86 95 93 91 7 -4 27 -18 45 -31z m-314 -468 l35 -7 -15 -30 c-33
-65 -43 -105 -30 -123 23 -31 49 -13 84 58 29 60 36 67 55 61 12 -3 25 -9 28
-13 4 -3 -14 -72 -39 -153 -44 -146 -45 -148 -71 -141 -63 15 -71 21 -71 56 0
70 -50 89 -73 27 -9 -22 -17 -30 -32 -28 -27 4 -24 23 26 181 29 95 44 127 54
123 7 -2 30 -8 49 -11z m-134 -594 c0 -75 53 -78 71 -5 11 44 12 44 55 44 l44
0 0 -160 0 -160 -45 0 c-43 0 -45 1 -55 39 -5 21 -17 42 -26 45 -22 8 -44 -11
-44 -38 0 -32 -15 -48 -41 -44 l-24 3 -3 158 -3 157 36 0 c34 0 35 -1 35 -39z
m235 -588 c15 -49 36 -116 46 -150 l17 -63 -40 -10 c-22 -6 -41 -10 -42 -8 -2
2 -13 20 -25 41 -17 28 -29 37 -45 35 -18 -3 -21 -9 -21 -57 0 -50 -2 -55 -26
-62 -26 -6 -27 -5 -67 125 -54 172 -55 176 -43 176 5 0 16 2 24 5 9 4 17 -5
23 -27 18 -62 74 -41 74 28 0 26 5 34 28 42 62 23 67 19 97 -75z m252 -588
l93 -110 -32 -27 c-23 -20 -43 -28 -70 -28 -34 0 -38 -2 -44 -35 -8 -44 -28
-62 -50 -44 -27 22 -170 193 -177 210 -6 17 39 69 60 69 5 0 18 -18 28 -40 22
-48 49 -74 70 -66 28 10 27 35 -4 103 -24 51 -29 68 -19 75 29 18 56 -2 145
-107z m386 -441 l98 -117 -32 -33 c-18 -19 -35 -31 -38 -28 -3 3 -19 31 -36
62 -24 46 -35 57 -55 57 -36 0 -37 -31 0 -111 16 -37 29 -68 28 -69 -7 -6 -47
-25 -52 -25 -11 0 -186 215 -186 230 1 38 16 40 50 5 37 -38 60 -44 80 -20 11
13 8 23 -17 59 l-31 44 36 30 c21 17 42 31 47 31 6 1 55 -51 108 -115z m255
-476 c58 -195 57 -189 41 -199 -21 -13 -24 -12 -40 24 -10 24 -20 32 -39 32
-23 0 -25 -4 -28 -47 l-3 -46 -50 -12 c-28 -7 -52 -11 -53 -9 -2 2 -23 69 -46
148 -35 118 -40 145 -29 152 30 19 46 8 74 -51 35 -72 43 -80 73 -69 28 11 28
31 -3 97 -14 30 -25 56 -25 58 0 5 60 22 81 23 12 1 24 -26 47 -101z m-37
-502 c4 -22 15 -46 25 -53 17 -12 21 -11 37 8 9 12 17 37 17 56 0 28 3 34 16
29 9 -3 22 -6 30 -6 11 0 14 -28 14 -155 l0 -155 -28 0 c-25 0 -30 5 -38 38
-7 30 -14 37 -33 37 -19 0 -27 -8 -36 -35 -11 -33 -15 -35 -58 -38 l-47 -3 0
155 0 155 33 4 c56 7 61 4 68 -37z m-81 -510 c43 -12 45 -15 48 -54 5 -71 48
-80 73 -16 13 33 15 34 33 21 22 -16 23 -11 -36 -199 l-30 -98 -35 0 c-34 0
-35 1 -28 28 16 57 12 77 -17 80 -23 3 -30 -3 -48 -38 -15 -29 -26 -40 -37
-36 -8 3 -26 9 -39 12 -13 3 -24 11 -24 17 0 12 80 277 87 290 5 9 -1 9 53 -7z
m-205 -631 c-32 -71 -30 -99 7 -103 23 -3 29 3 52 52 15 31 29 56 31 56 2 0
20 -14 40 -31 l35 -31 -41 -52 c-83 -105 -151 -176 -168 -176 -10 0 -28 11
-40 24 l-23 25 20 33 c15 24 18 38 11 51 -13 22 -30 22 -62 -3 -29 -23 -48
-25 -65 -8 -8 8 -8 17 0 32 12 22 96 123 157 189 34 36 36 37 53 19 18 -18 18
-20 -7 -77z m-422 -411 c4 -4 -16 -31 -43 -61 -28 -30 -50 -58 -50 -63 0 -12
29 -40 41 -40 6 0 34 23 63 50 29 28 58 50 64 50 19 0 42 -56 42 -100 0 -103
-78 -180 -181 -180 -47 0 -84 17 -120 57 -39 41 -49 66 -49 120 0 96 78 173
176 173 28 0 54 -3 57 -6z"/>
<path d="M9944 9074 c-60 -21 -119 -76 -149 -139 -24 -48 -27 -64 -23 -127 4
-84 26 -136 78 -188 56 -56 103 -75 190 -75 53 0 88 6 118 19 l42 19 24 -22
24 -23 -19 -32 c-39 -63 -26 -91 118 -258 97 -113 119 -126 177 -104 21 9 43
13 47 10 14 -8 10 -24 -5 -24 -8 0 -28 -13 -45 -29 -23 -22 -31 -38 -31 -64 0
-36 72 -281 96 -328 21 -42 63 -54 123 -36 36 10 51 11 51 3 0 -6 3 -21 6 -33
6 -22 3 -23 -46 -23 -44 0 -56 -4 -81 -29 l-29 -29 0 -171 c0 -93 4 -181 10
-196 12 -30 63 -55 115 -55 30 0 35 -3 35 -24 0 -46 -8 -55 -43 -45 -53 15
-94 11 -122 -13 -20 -18 -37 -58 -70 -168 -55 -177 -56 -209 -14 -244 17 -14
41 -29 55 -32 28 -7 29 -11 8 -65 -14 -34 -20 -40 -38 -34 -96 30 -98 29 -288
-208 -65 -80 -66 -113 -3 -174 l46 -44 -19 -27 c-32 -43 -59 -65 -67 -52 -16
26 -90 70 -117 70 -46 0 -62 -13 -173 -147 -95 -114 -105 -130 -105 -167 0
-35 6 -46 51 -89 49 -47 50 -50 38 -79 -10 -25 -16 -29 -38 -24 -14 3 -49 9
-78 12 -74 9 -90 -10 -143 -177 -54 -171 -59 -205 -31 -241 12 -15 37 -33 56
-39 28 -11 35 -18 35 -40 0 -47 -10 -58 -57 -65 -25 -4 -57 -17 -71 -29 l-27
-23 0 -186 c0 -214 3 -221 91 -237 26 -5 49 -11 52 -14 2 -2 7 -24 9 -49 5
-45 5 -45 -35 -61 -46 -19 -72 -51 -72 -90 0 -32 73 -278 96 -322 26 -50 87
-64 158 -37 11 4 66 -93 66 -119 0 -7 -22 -35 -50 -62 -44 -43 -50 -54 -50
-90 0 -38 9 -52 109 -172 60 -71 117 -133 126 -137 37 -14 72 -5 121 33 l52
39 47 -48 47 -48 -28 -59 c-38 -76 -41 -185 -7 -248 49 -93 147 -154 244 -155
159 0 280 118 280 274 0 197 -184 325 -375 260 l-48 -17 -45 46 -45 45 26 38
c30 45 33 79 9 114 -36 54 -197 241 -214 250 -23 13 -71 13 -102 1 -23 -9 -26
-6 -45 38 l-20 48 36 13 c51 18 82 53 82 91 0 38 -75 292 -98 331 -22 37 -63
50 -119 38 -55 -13 -63 -8 -63 36 l0 34 51 0 c43 0 55 5 80 29 l29 29 0 171
c0 103 -4 180 -11 194 -13 29 -45 46 -106 54 -40 5 -44 8 -41 32 2 20 8 25 23
23 103 -16 113 -15 139 11 29 29 116 291 116 349 0 36 -26 68 -78 97 -29 16
-6 22 40 10 24 -7 56 -9 70 -6 22 6 177 177 230 256 25 36 22 79 -7 117 l-25
33 32 38 c18 21 33 40 35 42 1 2 16 -7 32 -19 35 -24 76 -29 109 -11 13 7 70
69 127 138 95 114 105 130 105 166 0 36 -6 46 -54 91 l-54 51 28 65 c18 42 32
64 41 62 8 -2 37 -6 66 -9 73 -8 90 13 137 162 58 182 63 217 42 250 -10 15
-35 35 -57 44 -36 15 -39 19 -39 56 0 53 7 61 59 68 29 3 53 15 70 31 25 26
26 30 29 183 5 223 -6 250 -108 263 -45 5 -45 5 -48 47 -3 40 -1 43 31 57 46
19 77 54 77 88 0 15 -13 69 -29 120 -16 51 -37 119 -46 151 -18 59 -60 107
-93 107 -18 0 -73 -12 -108 -24 -17 -5 -24 -1 -34 24 -13 31 -12 33 39 83 42
43 51 59 51 88 0 39 -13 59 -117 181 -85 101 -127 138 -156 138 -26 0 -81 -31
-119 -68 l-28 -26 -28 27 -29 28 26 52 c35 70 36 181 4 243 -67 127 -215 185
-349 138z m175 -98 c42 -22 89 -81 97 -122 6 -35 -11 -144 -23 -144 -4 0 -39
32 -79 71 -55 52 -79 70 -96 67 -15 -2 -24 -11 -26 -27 -3 -18 13 -40 68 -96
l72 -72 -32 -7 c-95 -18 -174 14 -211 86 -28 54 -23 140 10 186 45 64 153 92
220 58z m428 -468 c44 -51 88 -106 98 -122 l19 -29 -34 -29 -35 -28 -29 57
c-38 76 -65 93 -85 55 -7 -13 -1 -37 21 -90 29 -70 30 -74 13 -92 -10 -11 -21
-20 -25 -20 -7 0 -141 155 -179 207 -22 29 -22 53 -1 53 5 0 22 -12 39 -26 59
-50 106 -12 57 47 -14 17 -26 35 -26 40 0 7 76 69 86 69 1 0 38 -42 81 -92z
m290 -544 c24 -76 41 -145 38 -151 -9 -26 -42 -14 -48 16 -6 29 -37 49 -57 36
-5 -3 -12 -28 -16 -55 -6 -45 -8 -49 -41 -55 -19 -3 -40 -8 -47 -11 -12 -4
-27 40 -86 243 l-18 61 30 4 c28 4 31 1 64 -64 35 -70 58 -84 84 -53 11 13 8
27 -15 81 -15 35 -26 66 -24 68 7 7 74 24 84 22 5 -1 29 -65 52 -142z m-54
-441 c3 -10 8 -30 11 -44 6 -29 27 -42 51 -33 10 4 15 20 15 50 0 44 0 44 35
44 l35 0 0 -160 0 -160 -29 0 c-29 0 -41 14 -41 50 0 23 -23 42 -44 34 -9 -3
-21 -24 -26 -46 -11 -38 -12 -39 -53 -36 l-42 3 -3 158 -3 157 45 0 c34 0 46
-4 49 -17z m-66 -533 c25 -9 31 -18 39 -58 7 -38 13 -48 32 -50 18 -3 26 4 37
32 16 38 21 41 43 27 16 -9 11 -32 -44 -203 l-35 -107 -29 11 c-34 11 -34 11
-20 57 20 69 -37 86 -70 21 -21 -41 -28 -43 -89 -24 -17 5 -12 33 36 187 39
125 41 127 100 107z m-194 -571 c-1 -8 -13 -41 -27 -73 -18 -44 -22 -65 -15
-78 20 -37 47 -21 83 51 l28 53 34 -33 c19 -18 34 -36 34 -41 0 -16 -182 -223
-197 -223 -18 0 -29 17 -38 58 -5 24 -10 27 -43 27 -24 0 -47 8 -67 24 l-29
23 19 29 c19 30 97 125 148 181 23 25 34 30 51 23 11 -4 20 -14 19 -21z m-366
-513 c-31 -41 -38 -61 -24 -75 19 -19 42 -12 72 19 32 34 50 38 59 14 6 -16
-39 -77 -146 -198 -40 -44 -46 -48 -66 -37 -28 15 -28 26 4 95 31 68 29 101
-6 101 -20 0 -31 -11 -55 -57 -16 -32 -32 -58 -35 -58 -3 0 -20 12 -38 28
l-33 27 102 122 102 122 44 -36 43 -36 -23 -31z m-305 -415 c4 -3 -3 -33 -17
-66 -29 -72 -30 -82 -7 -94 27 -15 50 5 76 63 13 30 29 57 35 60 15 10 51 -3
51 -17 0 -7 -18 -74 -41 -149 -45 -149 -45 -149 -108 -127 -30 11 -37 22 -43
79 -2 19 -10 26 -29 28 -22 3 -27 -2 -35 -29 -10 -35 -22 -43 -43 -30 -12 7
-8 29 22 128 56 185 51 176 95 168 20 -3 40 -10 44 -14z m-162 -565 c0 -42 18
-76 39 -76 24 0 41 28 41 64 0 23 4 26 34 26 19 0 41 3 50 6 14 5 16 -12 16
-155 l0 -161 -50 0 c-46 0 -50 2 -50 23 0 65 -59 76 -74 14 -8 -32 -13 -37
-38 -37 l-28 0 0 154 c0 169 -5 154 53 165 4 0 7 -10 7 -23z m254 -644 c19
-62 38 -128 41 -146 6 -30 4 -33 -31 -44 -21 -6 -39 -10 -39 -9 -43 72 -48 78
-74 75 -28 -3 -31 -15 -17 -74 6 -29 5 -32 -21 -37 -15 -3 -31 -2 -35 1 -12
13 -89 276 -84 289 8 21 36 15 45 -10 25 -64 65 -55 75 17 6 41 9 44 49 53 23
5 45 7 49 4 3 -3 22 -57 42 -119z m195 -498 c84 -98 131 -160 131 -173 0 -22
-49 -23 -76 -2 -34 27 -50 27 -65 0 -9 -17 -7 -25 9 -42 31 -33 30 -43 -7 -71
-41 -31 -36 -34 -139 89 -42 49 -82 97 -89 106 -12 15 -9 20 26 48 l39 31 29
-52 c22 -42 33 -53 53 -53 35 0 37 33 6 102 -25 53 -25 57 -10 75 10 10 20 18
23 17 3 0 35 -34 70 -75z m481 -444 c119 -61 123 -236 7 -305 -111 -64 -252 7
-264 132 -5 52 17 123 38 123 7 0 36 -22 65 -50 55 -52 71 -59 92 -38 20 20
14 37 -33 87 -25 26 -45 53 -45 60 0 19 97 13 140 -9z"/>
</g>
</svg>
